HIERARCHY
ROOT Hips
{
	OFFSET 12.320164 -1.521004 2.220819
	CHANNELS 6 Xposition Yposition Zposition Zrotation Yrotation Xrotation
	JOINT LHipJoint
	{
		OFFSET 0.722728 4.833684 -0.838608
		CHANNELS 3 Zrotation Yrotation Xrotation
		JOINT LeftUpLeg
		{
			OFFSET 2.027010 3.904780 3.838892
			CHANNELS 3 Zrotation Yrotation Xrotation
			JOINT LeftLeg
			{
				OFFSET 4.365685 11.973523 9.485794
				CHANNELS 3 Zrotation Yrotation Xrotation
				JOINT LeftFoot
				{
					OFFSET 6.969448 0.941915 1.531151
					CHANNELS 3 Zrotation Yrotation Xrotation
					JOINT LeftToeBase
					{
						OFFSET -0.498172 -5.442563 -3.191742
						CHANNELS 3 Zrotation Yrotation Xrotation
						End Site
						{
							OFFSET 0.000000 0.000000 0.000000
						}
					}
				}
			}
		}
	}
	JOINT RHipJoint
	{
		OFFSET -11.552003 -2.388528 -8.096370
		CHANNELS 3 Zrotation Yrotation Xrotation
		JOINT RightUpLeg
		{
			OFFSET -4.215555 -0.486769 0.131063
			CHANNELS 3 Zrotation Yrotation Xrotation
			JOINT RightLeg
			{
				OFFSET -9.165436 -6.551739 -3.788518
				CHANNELS 3 Zrotation Yrotation Xrotation
				JOINT RightFoot
				{
					OFFSET -12.494514 -15.218544 -3.153035
					CHANNELS 3 Zrotation Yrotation Xrotation
					JOINT RightToeBase
					{
						OFFSET -6.098624 13.000112 -5.979316
						CHANNELS 3 Zrotation Yrotation Xrotation
						End Site
						{
							OFFSET 0.000000 0.000000 0.000000
						}
					}
				}
			}
		}
	}
	JOINT LowerBack
	{
		OFFSET 6.046926 10.008132 1.340018
		CHANNELS 3 Zrotation Yrotation Xrotation
		JOINT Spine
		{
			OFFSET -8.351398 9.751770 32.830109
			CHANNELS 3 Zrotation Yrotation Xrotation
			JOINT Spine1
			{
				OFFSET 37.102467 45.191746 -11.638301
				CHANNELS 3 Zrotation Yrotation Xrotation
				JOINT Neck
				{
					OFFSET 4.308439 53.176559 61.117428
					CHANNELS 3 Zrotation Yrotation Xrotation
					JOINT Neck1
					{
						OFFSET 31.533718 -6.200984 4.762776
						CHANNELS 3 Zrotation Yrotation Xrotation
						JOINT Head
						{
							OFFSET 7.151807 13.865652 15.938004
							CHANNELS 3 Zrotation Yrotation Xrotation
							End Site
							{
								OFFSET 0.000000 0.000000 0.000000
							}
						}
					}
				}
				JOINT LeftShoulder
				{
					OFFSET 5.332782 10.693651 14.638223
					CHANNELS 3 Zrotation Yrotation Xrotation
					JOINT LeftArm
					{
						OFFSET 3.866005 9.637448 22.846548
						CHANNELS 3 Zrotation Yrotation Xrotation
						JOINT LeftForeArm
						{
							OFFSET 14.903580 52.047104 26.970764
							CHANNELS 3 Zrotation Yrotation Xrotation
							JOINT LeftHand
							{
								OFFSET 69.679611 18.976908 -19.063107
								CHANNELS 3 Zrotation Yrotation Xrotation
								JOINT LeftFingerBase
								{
									OFFSET 40.124809 -11.200215 17.090284
									CHANNELS 3 Zrotation Yrotation Xrotation
									JOINT LeftHandIndex1
									{
										OFFSET 11.999125 10.544118 15.878088
										CHANNELS 3 Zrotation Yrotation Xrotation
										End Site
										{
											OFFSET 0.000000 0.000000 0.000000
										}
									}
								}
								JOINT LThumb
								{
									OFFSET -1.204604 -7.649830 6.749357
									CHANNELS 3 Zrotation Yrotation Xrotation
									End Site
									{
										OFFSET 0.000000 0.000000 0.000000
									}
								}
							}
						}
					}
				}
				JOINT RightShoulder
				{
					OFFSET 0.101472 11.592249 11.879243
					CHANNELS 3 Zrotation Yrotation Xrotation
					JOINT RightArm
					{
						OFFSET 4.322875 -1.298929 4.765478
						CHANNELS 3 Zrotation Yrotation Xrotation
						JOINT RightForeArm
						{
							OFFSET 8.240278 15.221663 7.229832
							CHANNELS 3 Zrotation Yrotation Xrotation
							JOINT RightHand
							{
								OFFSET 4.526523 5.036262 4.156419
								CHANNELS 3 Zrotation Yrotation Xrotation
								JOINT RightFingerBase
								{
									OFFSET 60.616577 29.078583 94.870399
									CHANNELS 3 Zrotation Yrotation Xrotation
									JOINT RightHandIndex1
									{
										OFFSET 20.704073 87.692719 37.079327
										CHANNELS 3 Zrotation Yrotation Xrotation
										End Site
										{
											OFFSET 0.000000 0.000000 0.000000
										}
									}
								}
								JOINT RThumb
								{
									OFFSET 38.261459 -73.556145 -29.501194
									CHANNELS 3 Zrotation Yrotation Xrotation
									End Site
									{
										OFFSET -287.266602 -723.803589 549.861877
									}
								}
							}
						}
					}
				}
			}
		}
	}
}
MOTION
Frames: 7
Frame Time: 0.008333
8.791568 19.131214 46.202801 7.420101 12.372972 17.580635 17.889269 10.788441 19.670847 18.201403 36.454338 68.440323 12.495232 26.615589 62.185818 12.956308 29.954008 57.845497 6.253513 -1.540070 1.087544 0.445375 -0.984708 -3.556719 44.713314 32.225826 29.914925 36.345684 12.941567 73.409981 -4.995505 29.439768 22.778429 1.544623 27.687611 84.653702 26.645823 13.294987 35.797211 11.270121 83.900429 83.288765 115.503349 47.990040 2.582714 21.255680 9.520412 35.709339 32.766582 47.575115 42.398098 11.890830 5.550904 21.826843 14.228006 8.153183 5.360049 -62.690208 -83.561386 102.485802 173.930267 125.914612 113.180840 3.905414 14.010295 226.955109 -2.288244 88.285698 -18.617580 -7.125000 0.000000 0.000000 147.385910 178.839523 225.290207 3.582621 12.917256 -0.018290 79.695076 39.841591 64.717819 31.415428 197.155212 13.397870 7.616226 -11.987059 229.989288 2703.101807 1672.302734 2217.638672 7.125000 0.000000 0.000000 866.990112 -24226.623047 -13133.593750
4.209719 17.175117 -23.513678 2.210382 6.170527 2.136747 0.014735 -3.356057 -0.610175 -33.808361 -8.853086 -40.827644 -20.800362 -5.777836 10.768761 11.415200 -9.433625 6.478368 2.370929 -7.058749 20.164612 -6.053933 -5.919307 -15.114411 29.230480 14.595173 -58.330593 19.242222 0.536048 51.231529 -3.683324 2.592378 -39.106373 -5.754894 -14.556556 -13.179295 8.243444 -16.577841 -16.852798 4.161192 38.267540 43.972946 65.870750 -34.146084 -115.564629 -60.265663 -39.491737 -36.495960 12.451552 57.629383 63.696972 10.794094 -2.305861 5.766706 5.719651 -2.255011 -2.450748 -136.681183 -96.564034 172.557648 102.378662 125.154099 144.119003 9.956317 20.408819 128.973053 9.116483 180.153168 90.336540 -7.125000 0.000000 0.000000 18.867853 77.805977 -27.563145 -0.880149 18.820148 -0.758268 43.506187 -0.040733 -43.562450 -31.130154 120.062500 -96.794403 6.126132 -17.903757 -532.346741 -182.613693 -412.386719 398.512024 7.125000 0.000000 0.000000 -1842.151245 1215.084106 -15738.959961
5.278681 17.753735 20.908054 -1.691736 5.886552 0.718793 -0.564630 -4.787439 3.303503 2.896980 22.845726 4.336424 3.672225 7.956187 43.434582 5.471344 -27.161076 14.101543 1.203648 -17.646822 -2.499629 -5.888235 1.228047 -15.206248 -5.274357 -16.477150 -64.675301 9.070248 6.023177 -29.791145 -10.985743 -20.048870 24.533941 0.481691 -18.651125 -72.036995 -7.936234 4.350717 27.392811 -12.981098 -39.819313 -58.021027 16.610516 -32.812027 -103.685585 -66.606529 -92.706200 -4.659001 -7.551714 9.785475 17.615913 -1.469512 -10.723456 4.610935 -0.671665 8.482755 -3.094197 -122.143860 -69.856842 -26.870939 -73.745361 -8.982800 -17.688728 -4.291626 -11.879156 -394.319153 -11.607260 20.144852 -23.886353 -7.125000 0.000000 0.000000 -104.935265 4.305992 -202.264328 -19.059443 -6.125083 -1.052319 12.719246 -15.691120 -248.964371 -25.999563 13.057766 -45.344273 2.817924 -11.356120 -938.235046 -1655.947632 -1311.284790 2525.539795 7.125000 0.000000 0.000000 13950.625977 19142.542969 -14065.931641
1.701561 17.362759 25.468872 -5.868350 5.116644 4.122702 15.772784 0.271436 0.350601 -16.328304 -6.510958 -29.258129 4.432229 4.229952 21.391678 -10.191208 -59.861195 13.486217 0.744766 -22.102371 -31.604939 -6.099239 5.785307 -4.871862 57.522476 -2.261990 -123.239594 -7.020707 17.297874 29.105162 11.295494 -19.793262 50.013813 0.032124 6.377666 -6.311997 7.804382 6.618196 21.707966 -16.750610 -15.443293 2.184377 22.196167 -8.385991 -89.625519 -75.535522 -91.253548 40.630486 -15.442464 7.469726 34.507950 2.022855 -8.700947 3.653155 -18.958399 1.398256 -5.369943 -153.912872 -136.614487 -121.892433 63.303394 182.264069 21.127455 -8.896714 -21.601797 -536.223755 -37.481030 -117.844124 -1.771832 -7.125000 0.000000 0.000000 -110.364357 -4.106571 -57.498207 4.547606 2.034421 4.979090 76.767029 33.966766 -221.669083 -29.131615 32.811573 81.348595 -6.284259 -27.663437 -539.705994 901.300049 -1750.264526 879.874390 7.125000 0.000000 0.000000 15454.665039 -6475.503906 -12251.606445
2.197152 16.460899 -16.727406 -9.820027 -7.259827 -13.141979 -7.569634 -7.369713 -14.226878 -52.625839 -37.945816 -73.081413 -17.059704 -23.414703 -44.995766 -18.232241 -86.253983 -77.216827 -6.531260 -26.281612 -69.049629 -28.147102 -10.860017 -14.755475 53.850914 12.745852 -46.115746 -24.980854 -27.674824 2.623377 8.428061 -32.611927 30.560957 -7.060205 0.947826 -12.759356 8.526015 -21.916121 -19.802853 -11.205391 -11.218261 13.135317 -78.570786 19.820906 -35.968430 15.331512 14.127674 16.157207 1.560763 25.759995 39.078899 -8.548654 -5.289023 14.994150 2.262466 -0.154175 -4.920065 -105.785454 11.935733 -51.956841 -154.321259 -128.455688 -310.781982 -5.939754 -32.780060 -281.939453 81.143433 -93.828262 45.420643 -7.125000 0.000000 0.000000 -9.710993 -10.552753 -42.138393 -6.796529 -12.274428 2.923287 53.395401 7.747408 -92.694046 -35.941372 -32.555893 -41.666233 -4.759087 -16.984945 -556.282959 -987.065125 -1103.387695 -475.072845 7.125000 0.000000 0.000000 -14946.320312 -28329.361328 -31646.382812
4.188776 16.806925 3.865009 -4.934119 -5.147257 -7.743040 -14.015026 -4.455547 -2.912870 -10.832458 -17.352184 -26.000883 -1.220798 -0.913285 6.711872 7.980448 62.954483 40.267807 2.029436 7.258298 24.044121 6.449605 4.145129 -2.134274 69.082809 32.755520 65.144547 -18.553928 -29.054344 57.580437 12.168707 1.063041 72.848526 -4.940683 -6.617969 -64.468056 8.502125 -13.472504 3.449981 -3.912436 -36.418602 7.521627 -89.050896 60.393467 -147.626465 -115.238380 2.300952 -41.387135 -2.308242 -32.360851 15.090470 17.290359 6.378396 10.885389 5.147603 4.568833 1.632104 -89.410866 -66.965981 -324.528046 -308.046692 -78.284103 -84.612137 19.115068 2.555001 -142.324341 -58.351826 -253.108124 1.345744 -7.125000 0.000000 0.000000 139.100861 13.090544 21.342176 -1.018030 -11.327322 1.514419 28.839424 31.117985 -154.119247 -55.309315 7.851774 18.173729 -14.946211 -27.411903 -576.846436 -566.553711 216.251236 833.318665 7.125000 0.000000 0.000000 -11602.914062 -22147.798828 6331.775391
1.254058 17.471630 38.286774 0.116945 0.321247 0.049105 6.951907 -0.476030 1.783077 -8.918690 -26.181473 -35.911804 1.879505 9.440338 -9.634096 -3.673289 1.263108 -6.557450 -3.422861 -16.259741 -59.859539 -18.054131 0.040785 -12.107749 38.071911 -5.426758 -16.720539 -8.231047 -16.257509 28.763264 -0.934880 45.696484 108.723541 5.940795 28.907070 -67.846130 7.699877 9.009340 44.018471 2.181711 -66.793335 -51.476074 -79.862282 87.682182 -142.810867 -7.222220 104.780479 17.877989 31.167595 -20.346428 17.661190 32.660000 -1.434862 -8.314053 -5.808488 16.603271 1.190910 -23.820026 11.490802 -205.959534 -283.329254 -292.811981 -209.701187 8.856136 16.137110 534.062500 167.109390 -113.863304 14.079630 -7.125000 0.000000 0.000000 180.077316 183.892838 171.222992 -8.745856 7.831889 7.382509 80.353653 137.333435 152.002441 76.748260 32.914566 111.805466 2.874257 0.375113 228.459763 1915.496216 478.670776 1889.230347 7.125000 0.000000 0.000000 -3585.128662 -13014.471680 8479.710938
